<?xml version="1.0" encoding="utf-8"?>
<svg width="21.3333in" height="12in" viewBox="0 0 353.975301 206.251295" xmlns="http://www.w3.org/2000/svg">
        <path id="Unnamed #3" d="M 139.744723 78.741559 C 135.244723 60.441559 70.839989 45.700559 70.839989 87.141559 C 70.839989 114.960559 105.064723 156.171559 154.144723 172.941559 C 149.417723 184.602559 130.535115 201.234482 93.668349 174.136945 C 55.698217 146.228421 39.281017 134.350559 0.131017 138.074559 C 47.892017 145.984559 60.65554 167.848285 91.812821 191.825067 C 122.970102 215.801849 168.487801 204.496108 176.552821 182.282903 C 207.383362 219.374385 255.606075 205.682202 284.66165 176.153772 C 312.331234 148.033888 338.040068 152.14198 352.340323 147.236502 C 326.821364 148.65078 308.798183 136.598182 256.188293 178.01831 C 233.3936 195.964728 197.784467 180.500959 197.202821 167.616149 C 196.822821 167.956149 234.563021 171.682523 252.861543 141.921118 C 268.09516 117.144591 270.743643 78.781829 350.843643 58.981829 C 316.193643 59.881829 277.701334 62.971464 255.094723 109.041559 C 225.491013 169.371066 169.215464 149.574129 208.744723 106.791559 C 343.295491 -38.832919 92.073051 -30.39818 151.594723 105.891559 C 161.534338 128.65079 172.756696 160.037241 131.070723 142.216559 C 109.077532 132.814508 96.390723 115.286559 90.460723 100.970559 C 74.821723 63.214559 121.084723 61.081559 139.744723 78.741559 Z M 160.865497 34.774861 C 160.865497 40.164861 176.865497 42.074861 176.825497 34.774861 C 176.775497 27.474861 160.865497 29.384861 160.865497 34.774861 Z" style="fill-rule: evenodd; paint-order: stroke markers; stroke-width: 0px; stroke: rgb(0, 0, 0);"/>
</svg>